#N canvas 0 0 2160 1314 10;
#X declare -lib mrpeach;
#X obj 83 -25 unpackOSC;
#X obj 83 3 routeOSC /test;
#X obj 75 276 mtof;
#X text 188 32 <-- route messages;
#X obj 83 -87 import mrpeach;
#X obj 208 246 dbtorms;
#X text 80 -112 receiving OSC messages with arguments;
#X floatatom 276 244 5 0 0 0 - - -;
#X obj 189 1 print unpacked;
#X obj 83 -58 udpreceive 9001;
#X obj 387 505 *~;
#X obj 535 185 osc~;
#X floatatom 439 94 5 0 0 3 - - -;
#X floatatom 764 85 4 0 0 0 - - -;
#X obj 654 50 hsl 30 10 0 1 0 1 empty empty depth -2 -8 0 10 -262144
-1 -1 2200 1;
#X floatatom 603 170 5 0 0 0 - - -;
#X text 703 141 Seconds;
#X obj 780 139 inv;
#X obj 537 235 *~ 0.5;
#X obj 698 268 *~;
#X obj 780 291 swap 1;
#X obj 698 328 +~;
#X obj 798 336 -;
#X obj 535 209 +~ 1;
#X obj 819 66 * 100;
#X text 860 80 Convert depth to percent;
#X text 791 267 Multiply by depth of effect;
#X text 826 295 Subtract depth from 1 and sum with output;
#X text 826 310 so a depth of 0 has an output of 1;
#X obj 579 -4 inlet depth;
#X text 810 134 Calculate seconds and display;
#X text 810 147 (seconds = 1/Hz);
#X obj 387 462 osc~;
#X obj 797 504 vline~;
#X msg 922 458 1 1000 \, 0.4 3000 1000 \, 0 1000 3000;
#X obj 794 443 tgl 15 0 empty empty empty 17 7 0 10 -262144 -1 -1 0
1;
#X obj 615 441 *~;
#X obj 83 32 routeOSC /voice;
#X obj 552 541 *~;
#X obj 83 58 unpack f f f;
#X text 741 423 To deactive ADSR;
#X text 932 402 ADSR;
#X text 731 85 Hz %;
#X text 271 270 Amplitude received;
#X text 411 119 LFO RATE received;
#X obj 402 566 dac~;
#X text 925 420 It reaches 1 after 1000 ms \, reaches 0.7 after 1000
ms \, reaches 0 after 1000 ms;
#X connect 0 0 1 0;
#X connect 0 0 8 0;
#X connect 1 0 37 0;
#X connect 2 0 32 0;
#X connect 5 0 38 1;
#X connect 9 0 0 0;
#X connect 10 0 45 0;
#X connect 10 0 45 1;
#X connect 11 0 23 0;
#X connect 12 0 17 0;
#X connect 14 0 19 1;
#X connect 14 0 20 0;
#X connect 14 0 24 0;
#X connect 17 0 15 0;
#X connect 18 0 19 0;
#X connect 19 0 21 0;
#X connect 20 0 22 0;
#X connect 20 1 22 1;
#X connect 21 0 36 0;
#X connect 22 0 21 1;
#X connect 23 0 18 0;
#X connect 24 0 13 0;
#X connect 29 0 14 0;
#X connect 32 0 10 0;
#X connect 33 0 36 1;
#X connect 34 0 33 0;
#X connect 34 0 33 0;
#X connect 35 0 33 0;
#X connect 36 0 38 0;
#X connect 37 0 39 0;
#X connect 38 0 10 1;
#X connect 39 0 2 0;
#X connect 39 1 7 0;
#X connect 39 1 5 0;
#X connect 39 2 12 0;
#X connect 39 2 11 0;
#X connect 39 2 34 0;
